# xmcd CD database file
#
# Track frame offsets:
#	150
#	15084
#	29225
#	44678
#	59081
#	73337
#	87268
#	99501
#	113630
#	127550
#	142853
#	157236
#	199727
#	213751
#
# Disc length: 2996 seconds
#
# Revision: 0
# Processed by: cddbd v1.5.2PL0 Copyright (c) Steve Scherf et al.
# Submitted via: CDex 1.51
#
DISCID=c30bb20e
DTITLE=Artie Shaw - Jazz Giants - CD4
DYEAR=2006
DGENRE=Jazz
TTITLE0=I Can't Get Started With You
TTITLE1=Scuttlebutt
TTITLE2=A Room With A View
TTITLE3=Blues In The Night
TTITLE4=A Foggy Day
TTITLE5=What Is There To Say
TTITLE6=My Heart Stood Still
TTITLE7=Smoke Gets In Your Eyes
TTITLE8=The Man I Love
TTITLE9=Stardust
TTITLE10=Moonglow
TTITLE11=Zigeuner
TTITLE12=La Paloma
TTITLE13=Nightmare
EXTD=YEAR: 2006
EXTT0=
EXTT1=
EXTT2=
EXTT3=
EXTT4=
EXTT5=
EXTT6=
EXTT7=
EXTT8=
EXTT9=
EXTT10=
EXTT11=
EXTT12=
EXTT13=
PLAYORDER=
